<svg width="915" height="874" viewBox="0 0 915 874" fill="none" xmlns="http://www.w3.org/2000/svg">
<path d="M510.145 831.658C250.944 854.06 11.1553 612.886 47.8657 330.263C72.9605 62.0831 346.986 74.2482 552.228 56.2137C754.945 38.4009 916.633 225.559 876.628 444.762C818.563 749.868 713.156 815.484 510.145 831.658Z" fill="#7F01FF" fill-opacity="0.15"/>
<path d="M388.5 75.3617C616.592 31.0367 851.802 222.588 845.32 477.008C847.818 717.508 603.368 732.536 422.787 767.897C244.427 802.823 83.5599 651.874 98.8271 453.458C122.194 177.061 209.728 108.86 388.5 75.3617Z" fill="#7F01FF" fill-opacity="0.2"/>
<g opacity="0.99">
<path d="M746.113 336.157L746.05 609.744C746.049 613.775 745.327 617.658 744.039 621.235C739.35 634.275 726.832 643.591 712.2 643.591L237.046 643.49C222.343 643.492 209.815 634.05 205.191 620.932C203.925 617.391 203.26 613.596 203.241 609.632L203.303 336.16C203.306 328.241 206.02 323.467 210.559 317.707C215.935 310.884 403.608 315.437 454.767 313.268C462.524 312.938 471.455 312.933 479.245 313.258C530.558 315.395 732.57 307.948 737.962 314.23C743.018 320.121 746.083 327.776 746.113 336.157ZM746.113 336.157L746.05 609.744C746.049 613.775 745.327 617.658 744.039 621.235C739.35 634.275 726.832 643.591 712.2 643.591L237.046 643.49C222.343 643.492 209.815 634.05 205.191 620.932C203.925 617.391 203.26 613.596 203.241 609.632L203.303 336.16C203.306 328.241 206.02 323.467 210.559 317.707C215.935 310.884 403.608 315.437 454.767 313.268C462.524 312.938 471.455 312.933 479.245 313.258C530.558 315.395 732.57 307.948 737.962 314.23C743.018 320.121 746.083 327.776 746.113 336.157Z" fill="black" fill-opacity="0.2"/>
<path d="M755.073 328.877L755.01 602.464C755.009 606.495 754.287 610.378 752.999 613.955C748.31 626.995 735.792 636.311 721.16 636.311L246.007 636.21C231.303 636.212 218.775 626.77 214.151 613.652C212.885 610.111 212.22 606.316 212.201 602.352L212.263 328.88C212.266 320.961 214.98 316.187 219.519 310.427C224.895 303.604 419.564 161.711 470.725 124.469C478.48 118.822 487.414 118.783 495.205 124.352C546.516 161.047 741.531 300.668 746.922 306.95C751.978 312.841 755.043 320.496 755.073 328.877ZM755.073 328.877L755.01 602.464C755.009 606.495 754.287 610.378 752.999 613.955C748.31 626.995 735.792 636.311 721.16 636.311L246.007 636.21C231.303 636.212 218.775 626.77 214.151 613.652C212.885 610.111 212.22 606.316 212.201 602.352L212.263 328.88C212.266 320.961 214.98 316.187 219.519 310.427C224.895 303.604 419.564 161.711 470.725 124.469C478.48 118.822 487.414 118.783 495.205 124.352C546.516 161.047 741.531 300.668 746.922 306.95C751.978 312.841 755.043 320.496 755.073 328.877Z" fill="#7F01FF" fill-opacity="0.9"/>
<path d="M731.289 203.474L731.464 481.584C731.473 494.443 721.051 504.871 708.192 504.88L261.777 505.49C248.918 505.499 238.485 495.079 238.476 482.22L238.3 204.113C238.292 191.255 248.714 180.823 261.573 180.814L707.992 180.205C720.85 180.196 731.28 190.615 731.289 203.474ZM731.289 203.474L731.464 481.584C731.473 494.443 721.051 504.871 708.192 504.88L261.777 505.49C248.918 505.499 238.485 495.079 238.476 482.22L238.3 204.113C238.292 191.255 248.714 180.823 261.573 180.814L707.992 180.205C720.85 180.196 731.28 190.615 731.289 203.474Z" fill="#ECF2FB"/>
<path d="M308.576 276.812L648.937 276.776M308.576 276.812L648.937 276.776M308.573 224.436L467.937 224.677M308.573 224.436L467.937 224.677M311.716 434.574L652.05 434.523M311.688 382.201L471.077 382.442M310.674 381.99L651.008 381.939M310.646 329.617L470.035 329.857M309.632 329.405L649.967 329.354M309.605 277.032L468.993 277.272M308.576 276.812L648.937 276.776M308.573 224.436L467.937 224.677" stroke="#BFCEE2" stroke-width="16.632" stroke-linecap="round" stroke-linejoin="round"/>
<path d="M755.072 331.378L755.01 602.464C755.009 606.495 754.287 610.378 752.999 613.955C748.31 626.995 735.793 636.311 721.16 636.311L246.007 636.21C231.303 636.212 218.775 626.77 214.151 613.652C212.885 610.111 212.22 606.316 212.201 602.352L212.265 331.382C212.275 312.669 227.439 306.577 246.078 318.034L480.937 466.084L721.231 318.135C738.939 307.578 755 312.703 755.072 331.378ZM755.072 331.378L755.01 602.464C755.009 606.495 754.287 610.378 752.999 613.955C748.31 626.995 735.793 636.311 721.16 636.311L246.007 636.21C231.303 636.212 218.775 626.77 214.151 613.652C212.885 610.111 212.22 606.316 212.201 602.352L212.265 331.382C212.275 312.669 227.439 306.577 246.078 318.034L480.937 466.084L721.231 318.135C738.939 307.578 755 312.703 755.072 331.378ZM753 613.37C748.313 626.752 735.793 636.311 721.16 636.311L246.008 636.207C231.304 636.209 218.773 626.519 214.151 613.059L463.314 446.066C463.314 446.066 474.824 438.575 484.256 438.684C493.688 438.793 503.711 446.556 503.711 446.556L753 613.37ZM753 613.37C748.313 626.752 735.793 636.311 721.16 636.311L246.008 636.207C231.304 636.209 218.773 626.519 214.151 613.059L463.314 446.066C463.314 446.066 474.824 438.575 484.256 438.684C493.688 438.793 503.711 446.556 503.711 446.556L753 613.37ZM752.999 613.955C748.31 626.995 735.793 636.311 721.16 636.311L246.007 636.21C231.303 636.212 218.775 626.77 214.151 613.652L463.313 450.912C463.313 450.912 474.822 443.613 484.255 443.719C493.689 443.824 503.715 451.389 503.715 451.389L752.999 613.955ZM752.999 613.955C748.31 626.995 735.793 636.311 721.16 636.311L246.007 636.21C231.303 636.212 218.775 626.77 214.151 613.652L463.313 450.912C463.313 450.912 474.822 443.613 484.255 443.719C493.689 443.824 503.715 451.389 503.715 451.389L752.999 613.955ZM230.205 306.387C230.2 306.392 230.18 306.414 230.165 306.427C230.165 306.427 230.162 306.436 230.164 306.44C230.166 306.448 230.164 306.451 230.165 306.451L230.249 306.449C230.249 306.449 230.252 306.45 230.252 306.44C230.253 306.436 230.252 306.429 230.252 306.429C230.239 306.415 230.215 306.39 230.209 306.388L230.205 306.387ZM230.205 306.387C230.2 306.392 230.18 306.414 230.165 306.427C230.165 306.427 230.162 306.436 230.164 306.44C230.166 306.448 230.164 306.451 230.165 306.451L230.249 306.449C230.249 306.449 230.252 306.45 230.252 306.44C230.253 306.436 230.252 306.429 230.252 306.429C230.239 306.415 230.215 306.39 230.209 306.388L230.205 306.387Z" fill="#7F01FF" fill-opacity="0.94"/>
<path d="M752.999 613.37C748.312 626.752 735.792 636.311 721.16 636.311L246.007 636.207C231.304 636.209 218.773 626.519 214.151 613.059L463.313 446.066C463.313 446.066 474.823 438.575 484.255 438.684C493.688 438.793 503.711 446.556 503.711 446.556L752.999 613.37ZM752.999 613.37C748.312 626.752 735.792 636.311 721.16 636.311L246.007 636.207C231.304 636.209 218.773 626.519 214.151 613.059L463.313 446.066C463.313 446.066 474.823 438.575 484.255 438.684C493.688 438.793 503.711 446.556 503.711 446.556L752.999 613.37ZM752.998 613.955C748.31 626.995 735.792 636.311 721.16 636.311L246.006 636.21C231.303 636.212 218.775 626.77 214.151 613.652L463.312 450.912C463.312 450.912 474.822 443.613 484.255 443.718C493.688 443.824 503.714 451.389 503.714 451.389L752.998 613.955ZM752.998 613.955C748.31 626.995 735.792 636.311 721.16 636.311L246.006 636.21C231.303 636.212 218.775 626.77 214.151 613.652L463.312 450.912C463.312 450.912 474.822 443.613 484.255 443.718C493.688 443.824 503.714 451.389 503.714 451.389L752.998 613.955ZM230.205 306.387C230.199 306.392 230.179 306.414 230.165 306.427C230.165 306.427 230.162 306.436 230.164 306.44C230.165 306.448 230.164 306.451 230.164 306.451L230.248 306.449C230.249 306.449 230.252 306.45 230.251 306.44C230.252 306.436 230.251 306.429 230.251 306.429C230.238 306.415 230.215 306.39 230.208 306.388L230.205 306.387ZM230.205 306.387C230.199 306.392 230.179 306.414 230.165 306.427C230.165 306.427 230.162 306.436 230.164 306.44C230.165 306.448 230.164 306.451 230.164 306.451L230.248 306.449C230.249 306.449 230.252 306.45 230.251 306.44C230.252 306.436 230.251 306.429 230.251 306.429C230.238 306.415 230.215 306.39 230.208 306.388L230.205 306.387Z" fill="#202020" fill-opacity="0.3"/>
<path d="M752.998 613.955C748.31 626.995 735.792 636.311 721.16 636.311L246.006 636.21C231.303 636.212 218.775 626.77 214.151 613.652L463.312 450.912C463.312 450.912 474.822 443.613 484.255 443.718C493.688 443.824 503.714 451.389 503.714 451.389L752.998 613.955ZM752.998 613.955C748.31 626.995 735.792 636.311 721.16 636.311L246.006 636.21C231.303 636.212 218.775 626.77 214.151 613.652L463.312 450.912C463.312 450.912 474.822 443.613 484.255 443.718C493.688 443.824 503.714 451.389 503.714 451.389L752.998 613.955ZM230.205 306.387C230.199 306.392 230.179 306.414 230.165 306.427C230.165 306.427 230.162 306.436 230.164 306.44C230.165 306.448 230.164 306.451 230.164 306.451L230.248 306.449C230.249 306.449 230.252 306.45 230.251 306.44C230.252 306.436 230.251 306.429 230.251 306.429C230.238 306.415 230.215 306.39 230.208 306.388L230.205 306.387ZM230.205 306.387C230.199 306.392 230.179 306.414 230.165 306.427C230.165 306.427 230.162 306.436 230.164 306.44C230.165 306.448 230.164 306.451 230.164 306.451L230.248 306.449C230.249 306.449 230.252 306.45 230.251 306.44C230.252 306.436 230.251 306.429 230.251 306.429C230.238 306.415 230.215 306.39 230.208 306.388L230.205 306.387Z" fill="#7F01FF" fill-opacity="0.43"/>
</g>
<path d="M294.779 377.523C318.142 379.687 335.355 400.412 333.191 423.775C331.027 447.138 310.302 464.351 286.939 462.187C263.575 460.023 246.363 439.298 248.527 415.935C250.691 392.571 271.416 375.359 294.779 377.523Z" fill="black" fill-opacity="0.18"/>
<path d="M298.128 370.431C321.491 372.595 338.703 393.321 336.54 416.684C334.376 440.047 313.65 457.259 290.287 455.095C266.924 452.932 249.712 432.206 251.876 408.843C254.039 385.48 274.765 368.268 298.128 370.431ZM304.052 436.775C300.322 438.313 295.429 438.847 290.894 438.427C277.643 437.199 268.909 427.869 270.284 413.017C271.858 396.031 284.763 386.463 298.37 387.723C312.155 389 318.792 398.673 317.722 410.235C316.774 420.462 311.514 424.956 307.703 424.466C305.222 424.146 304.822 421.688 306.197 416.523L310.389 400.318C308.28 398.867 303.924 397.476 300.012 397.114C287.205 395.928 278.286 405.058 277.282 415.908C276.606 423.201 280.391 427.856 286.172 428.392C290.886 428.828 295.101 426.887 298.279 422.606L298.456 422.623C298.464 427.377 301.29 429.792 305.471 430.179C315.075 431.068 323.125 423.562 324.328 410.578C325.711 395.637 315.503 383.838 299.851 382.389C279.752 380.527 265.132 395.05 263.451 413.192C261.837 430.623 273.842 442.409 288.604 443.776C294.918 444.361 299.617 443.988 305.175 442.081L304.052 436.775ZM298.634 412.952C297.355 418.036 293.5 421.895 290.21 421.59C287.276 421.318 285.961 419.044 286.274 415.664C286.908 408.817 292.068 403.464 297.938 404.008C299.093 404.115 299.966 404.375 300.661 404.619L298.634 412.952Z" fill="#E1EAF5"/>
<path d="M304.053 436.775C300.322 438.313 295.429 438.847 290.894 438.427C277.643 437.199 268.909 427.869 270.285 413.017C271.858 396.031 284.763 386.463 298.371 387.723C312.155 389 318.793 398.673 317.722 410.235C316.775 420.462 311.514 424.956 307.704 424.466C305.222 424.146 304.822 421.688 306.197 416.523L310.389 400.318C308.281 398.867 303.925 397.476 300.012 397.114C287.206 395.928 278.287 405.058 277.282 415.908C276.607 423.201 280.392 427.856 286.173 428.392C290.886 428.828 295.102 426.887 298.279 422.606L298.456 422.623C298.465 427.377 301.291 429.792 305.471 430.179C315.075 431.068 323.126 423.562 324.328 410.578C325.712 395.637 315.503 383.838 299.851 382.389C279.752 380.527 265.132 395.05 263.452 413.192C261.838 430.623 273.842 442.409 288.604 443.776C294.919 444.361 299.617 443.988 305.176 442.081L304.053 436.775ZM298.634 412.952C297.356 418.036 293.501 421.895 290.211 421.59C287.276 421.318 285.962 419.044 286.275 415.664C286.909 408.817 292.069 403.464 297.938 404.008C299.094 404.115 299.967 404.375 300.661 404.619L298.634 412.952Z" fill="#7F01FF"/>
<path d="M743.507 505.612V580.232C743.507 584.757 739.833 588.432 735.307 588.432H532.357C527.832 588.432 524.157 584.757 524.157 580.232V505.612C524.157 501.086 527.832 497.412 532.357 497.412H735.307C739.833 497.412 743.507 501.086 743.507 505.612ZM743.507 505.612V580.232C743.507 584.757 739.833 588.432 735.307 588.432H532.357C527.832 588.432 524.157 584.757 524.157 580.232V505.612C524.157 501.086 527.832 497.412 532.357 497.412H735.307C739.833 497.412 743.507 501.086 743.507 505.612ZM748.427 500.692V575.312C748.427 579.837 744.753 583.512 740.227 583.512H537.277C532.752 583.512 529.077 579.837 529.077 575.312V500.692C529.077 496.166 532.752 492.492 537.277 492.492H740.227C744.753 492.492 748.427 496.166 748.427 500.692ZM748.427 500.692V575.312C748.427 579.837 744.753 583.512 740.227 583.512H537.277C532.752 583.512 529.077 579.837 529.077 575.312V500.692C529.077 496.166 532.752 492.492 537.277 492.492H740.227C744.753 492.492 748.427 496.166 748.427 500.692ZM578.072 499.667C599.229 499.667 616.407 516.844 616.407 538.002C616.407 559.159 599.229 576.337 578.072 576.337C556.915 576.337 539.737 559.159 539.737 538.002C539.737 516.844 556.915 499.667 578.072 499.667ZM578.072 499.667C599.229 499.667 616.407 516.844 616.407 538.002C616.407 559.159 599.229 576.337 578.072 576.337C556.915 576.337 539.737 559.159 539.737 538.002C539.737 516.844 556.915 499.667 578.072 499.667ZM578.072 511.762C586.79 511.762 593.857 518.829 593.857 527.547C593.857 534.735 589.053 544.006 582.48 547.039C581.798 547.354 601.852 549.174 602.726 560.354C598.777 565.779 589.04 571.007 578.072 571.007C566.284 571.007 556.445 564.344 552.651 560.099C553.165 548.867 573.794 547.139 572.932 546.671C566.738 543.314 562.287 534.465 562.287 527.547C562.287 518.829 569.355 511.762 578.072 511.762ZM578.072 511.762C586.79 511.762 593.857 518.829 593.857 527.547C593.857 534.735 589.053 544.006 582.48 547.039C581.798 547.354 601.852 549.174 602.726 560.354C598.777 565.779 589.04 571.007 578.072 571.007C566.284 571.007 556.445 564.344 552.651 560.099C553.165 548.867 573.794 547.139 572.932 546.671C566.738 543.314 562.287 534.465 562.287 527.547C562.287 518.829 569.355 511.762 578.072 511.762Z" fill="black" fill-opacity="0.17"/>
<path d="M748.427 500.692V575.312C748.427 579.837 744.753 583.512 740.227 583.512H537.277C532.752 583.512 529.077 579.837 529.077 575.312V500.692C529.077 496.166 532.752 492.492 537.277 492.492H740.227C744.753 492.492 748.427 496.166 748.427 500.692ZM748.427 500.692V575.312C748.427 579.837 744.753 583.512 740.227 583.512H537.277C532.752 583.512 529.077 579.837 529.077 575.312V500.692C529.077 496.166 532.752 492.492 537.277 492.492H740.227C744.753 492.492 748.427 496.166 748.427 500.692ZM578.072 499.667C599.229 499.667 616.407 516.844 616.407 538.002C616.407 559.159 599.229 576.337 578.072 576.337C556.915 576.337 539.737 559.159 539.737 538.002C539.737 516.844 556.915 499.667 578.072 499.667ZM578.072 499.667C599.229 499.667 616.407 516.844 616.407 538.002C616.407 559.159 599.229 576.337 578.072 576.337C556.915 576.337 539.737 559.159 539.737 538.002C539.737 516.844 556.915 499.667 578.072 499.667ZM578.072 511.762C586.79 511.762 593.857 518.829 593.857 527.547C593.857 534.735 589.053 544.006 582.48 547.039C581.798 547.354 601.852 549.174 602.725 560.354C598.777 565.779 589.04 571.007 578.072 571.007C566.284 571.007 556.445 564.344 552.651 560.099C553.165 548.867 573.794 547.139 572.932 546.671C566.738 543.314 562.287 534.465 562.287 527.547C562.287 518.829 569.355 511.762 578.072 511.762ZM578.072 511.762C586.79 511.762 593.857 518.829 593.857 527.547C593.857 534.735 589.053 544.006 582.48 547.039C581.798 547.354 601.852 549.174 602.725 560.354C598.777 565.779 589.04 571.007 578.072 571.007C566.284 571.007 556.445 564.344 552.651 560.099C553.165 548.867 573.794 547.139 572.932 546.671C566.738 543.314 562.287 534.465 562.287 527.547C562.287 518.829 569.355 511.762 578.072 511.762Z" fill="white"/>
<path d="M578.072 499.667C599.229 499.667 616.407 516.844 616.407 538.002C616.407 559.159 599.229 576.337 578.072 576.337C556.915 576.337 539.737 559.159 539.737 538.002C539.737 516.844 556.915 499.667 578.072 499.667ZM578.072 499.667C599.229 499.667 616.407 516.844 616.407 538.002C616.407 559.159 599.229 576.337 578.072 576.337C556.915 576.337 539.737 559.159 539.737 538.002C539.737 516.844 556.915 499.667 578.072 499.667ZM578.072 511.762C586.79 511.762 593.857 518.829 593.857 527.547C593.857 534.735 589.053 544.006 582.48 547.039C581.798 547.354 601.852 549.174 602.726 560.354C598.777 565.779 589.04 571.007 578.072 571.007C566.284 571.007 556.445 564.344 552.651 560.099C553.165 548.867 573.794 547.139 572.933 546.671C566.738 543.314 562.287 534.465 562.287 527.547C562.287 518.829 569.355 511.762 578.072 511.762ZM578.072 511.762C586.79 511.762 593.857 518.829 593.857 527.547C593.857 534.735 589.053 544.006 582.48 547.039C581.798 547.354 601.852 549.174 602.726 560.354C598.777 565.779 589.04 571.007 578.072 571.007C566.284 571.007 556.445 564.344 552.651 560.099C553.165 548.867 573.794 547.139 572.933 546.671C566.738 543.314 562.287 534.465 562.287 527.547C562.287 518.829 569.355 511.762 578.072 511.762Z" fill="#DFE5F3"/>
<path d="M578.072 511.762C586.789 511.762 593.857 518.829 593.857 527.547C593.857 534.735 589.053 544.006 582.48 547.039C581.798 547.354 601.852 549.174 602.725 560.354C598.777 565.779 589.04 571.007 578.072 571.007C566.284 571.007 556.445 564.344 552.65 560.099C553.165 548.867 573.794 547.139 572.932 546.671C566.738 543.314 562.287 534.465 562.287 527.547C562.287 518.829 569.355 511.762 578.072 511.762ZM578.072 511.762C586.789 511.762 593.857 518.829 593.857 527.547C593.857 534.735 589.053 544.006 582.48 547.039C581.798 547.354 601.852 549.174 602.725 560.354C598.777 565.779 589.04 571.007 578.072 571.007C566.284 571.007 556.445 564.344 552.65 560.099C553.165 548.867 573.794 547.139 572.932 546.671C566.738 543.314 562.287 534.465 562.287 527.547C562.287 518.829 569.355 511.762 578.072 511.762Z" fill="white"/>
<path d="M632.397 528.982H731.207M632.397 528.982H731.207M632.397 563.422H731.207M632.397 546.202H731.207M632.397 528.982H731.207" stroke="#DEE4F3" stroke-width="8.2" stroke-linecap="round" stroke-linejoin="round"/>
<path d="M632.397 511.352H679.957M632.397 511.352H679.957" stroke="#7F01FF" stroke-width="8.2" stroke-linecap="round" stroke-linejoin="round"/>
<path d="M549.479 363.816L483.021 396.001L544.244 375.775L567.13 374.015L557.679 362.061L549.479 363.816ZM482.574 396.52L557.513 361.983L569.916 340.586L482.574 396.52ZM555.507 367.586L482.574 396.52L576.744 391.583L555.507 367.586Z" fill="black" fill-opacity="0.2"/>
<path d="M550.647 359.37L484.189 391.556L545.412 371.33L568.298 369.57L558.846 357.616L550.647 359.37ZM483.742 392.075L558.681 357.538L571.084 336.141L483.742 392.075ZM556.675 363.141L483.742 392.075L577.912 387.138L556.675 363.141Z" fill="#A6BDDB"/>
<path d="M483.742 392.075L558.681 357.538L571.084 336.141L483.742 392.075ZM556.675 363.141L483.742 392.075L577.912 387.138L556.675 363.141Z" fill="#D3DFED"/>
</svg>
